<?xml version="1.0" standalone="no"?>
<!DOCTYPE svg PUBLIC "-//W3C//DTD SVG 20010904//EN"
 "http://www.w3.org/TR/2001/REC-SVG-20010904/DTD/svg10.dtd">
<svg version="1.0" xmlns="http://www.w3.org/2000/svg"
 width="765.000000pt" height="765.000000pt" viewBox="0 0 765.000000 765.000000"
 preserveAspectRatio="xMidYMid meet">
<metadata>
Created by potrace 1.14, written by Peter Selinger 2001-2017
</metadata>
<g transform="translate(0.000000,765.000000) scale(0.100000,-0.100000)"
fill="#000000" stroke="none">
<path d="M3680 6374 c-349 -42 -637 -128 -943 -281 -71 -35 -183 -86 -250
-114 -210 -86 -435 -225 -627 -388 -54 -45 -99 -76 -104 -71 -5 5 -8 57 -7
117 1 145 -8 179 -60 226 -128 114 -374 171 -639 148 -208 -19 -353 -51 -490
-108 -211 -89 -373 -243 -341 -326 24 -60 61 -74 266 -97 309 -36 631 -233
740 -452 54 -111 59 -189 17 -290 -45 -107 -119 -352 -157 -518 -60 -259 -69
-347 -70 -640 0 -317 13 -438 86 -791 55 -272 66 -367 51 -450 -26 -136 -91
-212 -270 -318 -130 -76 -162 -109 -162 -166 0 -98 189 -222 420 -276 74 -17
249 -14 338 5 220 48 435 199 571 399 71 106 147 266 169 357 l19 75 49 -1
c27 -1 286 -5 577 -9 l527 -8 2 -71 c7 -252 -14 -408 -84 -625 -76 -235 -76
-339 -1 -422 51 -56 102 -81 233 -114 270 -69 647 125 860 440 99 146 197 384
234 566 11 55 46 277 46 293 0 5 77 38 130 56 363 126 540 180 583 180 34 0
61 -263 47 -461 -17 -249 -50 -389 -146 -612 -82 -191 -89 -279 -27 -355 87
-107 221 -101 428 20 161 94 354 265 463 411 65 88 143 239 181 353 47 141 61
251 61 494 0 245 9 320 49 405 27 59 98 140 130 149 9 3 59 12 111 21 52 9
128 27 168 41 104 34 312 141 307 156 -3 7 -1 19 4 27 16 24 82 1 109 -39 21
-31 23 -43 19 -110 -3 -41 -8 -84 -11 -95 -9 -30 9 -53 31 -39 31 19 46 83 47
194 1 89 -2 111 -21 148 -28 56 -7 57 40 2 37 -43 47 -75 47 -146 0 -23 4 -45
9 -48 13 -8 31 65 31 127 0 68 -9 94 -51 141 -34 40 -34 44 2 51 33 7 43 23
65 112 23 94 25 271 5 353 -8 30 -35 109 -61 175 l-48 120 -5 195 c-8 274 -48
449 -151 664 -126 261 -362 532 -592 677 -47 30 -148 95 -224 145 -310 204
-561 295 -890 325 -167 14 -244 7 -605 -58 -52 -9 -149 -16 -230 -17 -132 -1
-144 1 -205 27 -210 91 -337 118 -580 122 -102 2 -201 1 -220 -1z m380 -115
c36 -5 88 -15 117 -21 l52 -11 -75 -43 c-241 -137 -488 -360 -673 -606 -414
-552 -563 -1074 -477 -1665 34 -231 71 -397 130 -593 35 -113 63 -212 70 -240
4 -22 2 -25 -22 -24 -35 1 -63 14 -56 25 3 5 -1 6 -9 3 -21 -8 -152 91 -240
181 -85 87 -180 221 -251 355 -110 209 -206 593 -206 827 0 92 -2 103 -21 116
-27 20 -58 10 -65 -20 -16 -64 25 -325 81 -518 63 -216 256 -654 347 -788 25
-36 36 -63 31 -68 -5 -5 -82 -10 -170 -12 -146 -2 -160 -4 -152 -18 18 -34
266 -276 331 -324 37 -27 66 -51 63 -53 -7 -7 -118 65 -201 132 -45 36 -123
109 -173 162 l-92 97 -77 -6 c-42 -2 -120 -1 -172 3 -52 4 -97 6 -98 4 -8 -6
115 -152 187 -224 42 -41 127 -113 189 -159 61 -46 112 -86 112 -88 0 -9 -140
71 -191 110 -132 98 -284 264 -327 354 -9 18 -20 33 -24 33 -5 0 -6 5 -2 12 4
7 3 8 -4 4 -25 -15 -185 75 -363 205 -77 57 -92 60 -83 22 13 -60 47 -160 64
-188 9 -16 35 -70 55 -120 40 -93 80 -162 134 -229 38 -47 41 -69 5 -35 -55
51 -116 152 -203 337 -89 188 -139 278 -149 267 -6 -5 -24 19 -48 63 -15 25
-15 23 -9 -47 7 -76 53 -323 80 -420 15 -57 13 -71 -10 -71 -32 0 -72 116 -99
290 -27 173 -35 561 -16 790 15 186 22 203 50 117 7 -21 14 -36 17 -33 3 3 9
44 14 92 11 107 60 311 101 419 36 95 225 485 275 568 19 32 32 61 28 65 -19
19 -218 -237 -304 -393 -105 -188 -234 -541 -275 -747 -47 -241 -51 -289 -51
-613 1 -326 4 -355 64 -690 10 -55 15 -104 11 -108 -4 -4 -18 -4 -31 2 -26 9
-29 19 -66 186 -44 206 -55 311 -60 575 -4 209 -2 293 11 400 30 241 87 465
170 663 91 217 294 575 422 745 174 230 549 500 843 606 36 13 104 44 151 68
240 125 480 204 480 158 0 -5 -27 -27 -59 -50 -69 -46 -258 -217 -350 -315
-318 -341 -504 -727 -500 -1038 l1 -102 13 77 c50 294 214 648 421 908 115
144 345 342 484 414 57 29 150 81 324 180 60 34 93 45 171 56 68 9 257 3 355
-11z m-703 -45 c-16 -8 -36 -13 -45 -11 -14 3 -12 6 8 15 14 6 34 11 45 11 16
0 15 -3 -8 -15z m2236 -19 c205 -27 351 -71 531 -162 111 -56 151 -84 134 -95
-9 -5 -8 -8 4 -8 25 0 161 -64 176 -83 8 -9 11 -21 7 -28 -5 -7 -1 -9 11 -5
13 4 41 -9 84 -37 36 -23 86 -55 113 -70 26 -15 91 -72 145 -125 224 -221 347
-437 439 -767 19 -68 25 -121 28 -215 3 -92 2 -108 -4 -60 -10 91 -27 134 -79
213 -46 71 -91 112 -213 192 -71 48 -216 112 -227 100 -9 -8 6 -19 83 -60 164
-89 198 -123 220 -218 9 -40 23 -82 31 -94 13 -20 13 -23 -1 -23 -18 0 -13
-31 16 -87 30 -58 23 -63 -25 -17 -50 47 -143 95 -226 115 -74 18 -220 16
-300 -5 -111 -28 -416 -188 -428 -223 -6 -21 19 -15 78 17 239 131 335 167
469 176 187 14 335 -40 461 -165 93 -93 131 -150 203 -306 79 -171 96 -308 58
-452 -28 -109 -49 -136 -120 -158 -116 -35 -279 1 -330 73 -25 35 -55 138 -46
160 11 29 20 170 20 315 0 143 -4 156 -46 157 -14 0 -15 -21 -15 -162 1 -140
-2 -174 -21 -240 -49 -169 -125 -260 -286 -346 -122 -65 -159 -80 -165 -64 -2
7 -8 12 -14 12 -6 0 -7 -7 -4 -16 5 -14 4 -15 -9 -4 -8 7 -12 16 -9 22 3 5 -6
6 -23 1 -15 -4 -54 -7 -85 -7 -32 0 -58 -3 -58 -8 0 -4 6 -8 13 -8 7 0 4 -7
-7 -15 -19 -14 -18 -15 13 -15 18 0 30 4 27 8 -2 4 0 14 5 22 8 12 12 12 16 2
2 -6 9 -10 14 -6 5 3 9 1 9 -5 0 -5 6 -12 13 -14 6 -2 0 -3 -15 -1 -16 2 -28
-1 -28 -6 0 -6 -35 -10 -82 -9 -58 1 -74 4 -53 9 25 6 27 8 13 14 -10 5 -18
14 -18 22 0 8 -6 11 -16 7 -8 -3 -13 -11 -11 -18 3 -6 -1 -12 -8 -12 -8 0 -11
7 -7 15 4 12 1 14 -13 8 -11 -4 -16 -4 -12 0 4 4 -1 13 -11 20 -20 16 -36 18
-27 4 5 -9 -23 -15 -47 -11 -5 0 -8 -3 -8 -9 0 -5 -6 -10 -14 -10 -21 0 -245
-118 -276 -145 -23 -20 -168 -123 -191 -135 -20 -11 -39 -6 -39 11 0 13 46 58
102 99 26 19 47 37 47 40 0 3 -16 15 -37 28 -76 47 -218 169 -275 237 -242
288 -367 740 -296 1065 11 52 23 109 26 125 4 29 4 29 -13 10 -41 -49 -86
-177 -104 -291 -20 -132 24 -392 94 -548 32 -69 38 -126 16 -134 -13 -5 -13
-3 0 13 14 17 13 18 -2 12 -13 -5 -21 6 -38 57 -11 35 -23 86 -27 115 -5 41
-8 49 -16 36 -36 -64 92 -503 214 -734 22 -41 38 -76 35 -78 -14 -14 -251 152
-331 232 -76 75 -120 141 -190 284 -103 207 -136 339 -157 619 -7 89 -16 162
-20 162 -5 0 -12 -10 -17 -22 -7 -21 -8 -20 -14 8 -10 52 3 266 23 364 33 161
109 334 225 512 174 266 421 480 712 619 47 22 83 42 80 45 -9 9 -128 -25
-217 -63 -233 -99 -398 -223 -564 -423 -85 -102 -133 -176 -211 -321 -108
-204 -156 -366 -174 -591 -15 -183 3 -319 76 -568 102 -353 219 -568 416 -765
62 -61 133 -127 159 -146 26 -18 48 -39 48 -46 0 -17 -63 -63 -87 -63 -10 0
-29 9 -41 21 -36 33 -65 22 -81 -31 -8 -25 -19 -48 -25 -52 -7 -5 -6 -8 4 -8
12 -1 11 -3 -3 -11 -23 -13 -55 -79 -105 -214 -60 -162 -68 -198 -101 -442
-32 -242 -57 -333 -136 -498 -115 -240 -282 -421 -468 -505 -182 -82 -342 -90
-483 -23 -84 40 -99 62 -98 146 1 57 11 102 49 217 75 231 95 330 102 520 10
278 -22 462 -150 855 -135 412 -196 632 -226 811 -99 584 3 1053 343 1566 132
200 299 392 441 508 67 54 278 200 290 200 3 0 33 18 66 41 42 28 64 38 72 31
7 -6 46 -20 87 -33 65 -20 96 -24 225 -23 150 0 195 5 420 49 66 13 136 26
155 28 84 9 263 6 363 -8z m-4345 -275 c121 -14 227 -42 309 -82 104 -52 107
-58 105 -195 -2 -72 3 -137 11 -167 l13 -50 -83 -124 c-87 -130 -207 -347
-219 -396 -6 -26 -9 -22 -25 42 -30 118 -78 199 -187 310 -171 177 -406 273
-801 329 -30 5 -56 14 -58 20 -7 19 88 114 151 151 142 87 327 144 516 161
137 12 160 12 268 1z m3773 -2167 c6 -21 25 -64 41 -95 15 -32 24 -58 19 -58
-5 0 -17 21 -27 47 -10 25 -20 41 -22 35 -4 -14 -22 -6 -22 9 0 6 5 7 10 4 13
-8 13 -5 -1 34 -9 24 -14 29 -20 19 -7 -11 -11 -10 -19 2 -7 11 -5 16 5 18 9
2 13 8 10 13 -4 5 -2 9 4 9 5 0 15 -17 22 -37z m29 -128 c0 -5 -5 -3 -10 5 -5
8 -10 20 -10 25 0 6 5 3 10 -5 5 -8 10 -19 10 -25z m1814 -60 c24 -23 58 -49
77 -57 73 -32 91 -38 117 -39 l27 -1 -25 -7 c-24 -7 -24 -8 8 -15 18 -4 36
-15 39 -24 4 -10 11 -20 17 -24 6 -4 -2 -8 -19 -8 -23 0 -27 -3 -15 -10 12 -8
11 -10 -7 -10 -13 0 -23 -4 -23 -9 0 -17 -147 -75 -260 -102 -72 -18 -355 -18
-435 -1 -172 38 -233 71 -128 72 72 0 190 32 300 81 24 10 47 19 53 19 5 0 10
4 10 9 0 5 9 13 20 16 36 11 136 101 166 149 24 39 30 43 32 25 2 -12 23 -40
46 -64z m-1739 -17 c5 4 5 1 1 -6 -6 -10 -11 -10 -22 -1 -8 6 -14 14 -14 16 0
3 6 0 13 -6 8 -6 18 -7 22 -3z m2012 -104 c-3 -3 -12 -4 -19 -1 -8 3 -5 6 6 6
11 1 17 -2 13 -5z m40 0 c-3 -3 -12 -4 -19 -1 -8 3 -5 6 6 6 11 1 17 -2 13 -5z
m-850 -30 c-3 -3 -12 -4 -19 -1 -8 3 -5 6 6 6 11 1 17 -2 13 -5z m-349 -46
c-3 -8 -147 -64 -174 -68 -1 0 -18 -13 -39 -30 -38 -30 -85 -40 -85 -18 0 18
42 58 61 58 10 0 50 16 90 35 73 35 155 48 147 23z m95 -75 c9 -8 -104 -64
-115 -57 -13 8 0 23 40 44 39 20 64 25 75 13z m76 -62 c10 -7 -4 -18 -57 -45
-38 -19 -112 -67 -163 -106 -95 -72 -113 -80 -122 -56 -3 8 20 34 61 68 156
127 237 167 281 139z m73 -41 c72 0 57 -6 -34 -15 -51 -4 -78 -3 -78 3 0 12
29 21 48 16 8 -2 37 -4 64 -4z m145 -26 c-3 -3 -12 -4 -19 -1 -8 3 -5 6 6 6
11 1 17 -2 13 -5z m-4431 -263 c116 -88 179 -128 301 -192 54 -28 100 -53 103
-56 3 -3 -12 -3 -33 0 -53 8 -213 86 -300 146 -72 50 -180 152 -214 201 -17
25 -17 25 17 -2 19 -16 76 -59 126 -97z m3735 102 c16 -10 29 -21 29 -25 0
-11 -193 -111 -290 -151 -47 -19 -157 -60 -245 -90 -88 -30 -215 -76 -283
-101 -68 -25 -127 -46 -132 -46 -6 0 -10 9 -10 20 0 36 128 106 330 180 214
79 348 133 441 178 57 28 110 51 117 51 8 1 27 -7 43 -16z m669 -55 c0 -7 -9
-42 -20 -76 -16 -50 -20 -93 -20 -200 -1 -240 -17 -438 -44 -547 -71 -278
-270 -535 -568 -729 -163 -106 -237 -127 -293 -82 -28 23 -29 25 -10 31 74 24
210 94 295 151 215 143 385 346 459 550 52 141 62 217 70 504 6 240 9 269 28
312 12 26 33 59 47 73 27 27 56 33 56 13z m-400 -185 c-65 -50 -225 -217 -262
-274 -20 -30 -54 -88 -74 -128 -21 -40 -40 -67 -43 -60 -12 36 52 225 72 212
6 -3 7 -1 4 4 -4 6 2 21 13 33 11 13 20 27 20 32 0 4 8 8 17 8 9 0 13 3 10 7
-11 10 14 33 36 33 11 0 18 3 14 6 -9 9 19 34 40 35 11 0 13 3 5 6 -17 7 15
32 41 33 10 0 15 5 12 10 -3 6 3 10 15 10 12 0 18 5 15 10 -3 6 1 10 9 10 9 0
16 5 16 10 0 6 9 10 20 10 11 0 20 5 20 10 0 6 8 10 18 10 12 0 7 -8 -18 -27z
m-4640 -463 c3 -3 21 -14 40 -23 19 -10 58 -31 85 -47 28 -16 64 -37 80 -45
71 -35 157 -118 229 -221 41 -58 73 -111 70 -117 -6 -17 -138 -101 -204 -131
-135 -62 -336 -80 -470 -42 -90 25 -260 109 -295 146 l-29 31 34 29 c19 17 41
30 48 30 6 0 12 5 12 10 0 6 9 10 19 10 11 0 21 4 23 8 2 4 24 20 50 35 73 42
161 120 196 172 17 26 39 77 48 115 17 64 19 68 39 58 11 -6 22 -14 25 -18z"/>
<path d="M2773 5533 c-19 -7 -115 -140 -166 -228 -44 -78 -109 -219 -129 -280
-17 -54 -36 -165 -28 -165 4 0 22 42 40 93 42 117 150 332 234 467 57 91 74
122 64 119 -2 0 -8 -3 -15 -6z"/>
<path d="M3785 5673 c-94 -105 -152 -179 -235 -303 -144 -216 -186 -298 -260
-515 -48 -139 -61 -206 -22 -110 80 196 356 666 544 927 23 32 40 60 37 62 -3
3 -32 -25 -64 -61z"/>
<path d="M6743 5193 c4 -6 26 -15 49 -21 38 -10 99 -42 180 -95 37 -25 44 -6
12 33 -38 44 -117 81 -187 88 -40 3 -58 2 -54 -5z"/>
<path d="M5610 5104 c-122 -61 -252 -205 -301 -335 -26 -67 -38 -211 -19 -234
28 -33 35 -16 35 83 0 91 2 102 36 172 143 298 382 386 630 234 39 -25 74 -43
76 -40 25 25 -89 114 -181 141 -27 8 -84 15 -126 15 -69 0 -85 -4 -150 -36z"/>
<path d="M5642 4750 c-51 -32 -74 -76 -69 -138 6 -90 66 -127 176 -110 101 16
151 64 151 144 0 32 -6 46 -32 71 -18 18 -46 37 -61 42 -47 18 -128 13 -165
-9z m163 -62 c41 -18 23 -33 -41 -33 -32 -1 -74 -5 -92 -9 -27 -7 -31 -6 -26
7 14 38 107 59 159 35z"/>
<path d="M6014 4649 c-22 -11 -76 -49 -119 -85 -86 -71 -113 -88 -189 -114
-54 -18 -85 -53 -73 -84 6 -15 14 -17 50 -11 106 18 165 55 242 152 32 41 78
91 102 111 64 53 59 66 -13 31z"/>
<path d="M5064 4625 c-26 -47 -39 -134 -38 -265 1 -206 38 -357 132 -545 82
-165 175 -278 307 -376 47 -34 85 -68 85 -76 0 -7 4 -13 8 -13 5 0 18 -9 31
-21 l22 -21 41 32 c45 36 201 110 234 110 11 0 24 3 27 6 9 9 -37 44 -57 44
-23 0 -141 -55 -173 -80 -17 -13 -30 -17 -36 -11 -26 26 27 61 149 100 l52 16
-24 70 c-28 83 -31 187 -9 263 21 69 102 188 174 254 63 59 261 202 335 244
48 27 62 50 24 38 -108 -33 -383 -235 -513 -377 -117 -127 -167 -227 -183
-369 l-8 -63 -16 30 c-29 55 -41 148 -36 290 6 167 3 169 -87 64 -16 -19 -54
-54 -83 -77 -44 -34 -62 -42 -95 -42 -69 0 -135 54 -171 141 -35 85 -68 292
-74 474 -6 140 -9 176 -18 160z"/>
<path d="M6660 4493 c-63 -6 -140 -24 -140 -34 0 -11 19 -11 140 1 100 9 196
1 304 -26 32 -8 61 -13 64 -10 10 11 -93 47 -176 61 -81 14 -115 16 -192 8z"/>
<path d="M6714 4386 c-8 -22 3 -33 18 -18 9 9 9 15 0 24 -9 9 -13 7 -18 -6z"/>
<path d="M6526 4383 c-12 -12 -6 -33 9 -33 8 0 15 6 15 14 0 17 -14 28 -24 19z"/>
<path d="M6970 4355 c0 -10 7 -15 18 -13 21 4 19 22 -2 26 -10 2 -16 -3 -16
-13z"/>
<path d="M7030 4305 c7 -8 16 -12 21 -9 13 8 1 24 -18 24 -13 0 -13 -3 -3 -15z"/>
<path d="M6585 4297 c-13 -10 -15 -16 -6 -21 12 -8 41 10 41 25 0 13 -13 11
-35 -4z"/>
<path d="M6345 4279 c-4 -6 -4 -13 -1 -16 8 -8 36 5 36 17 0 13 -27 13 -35 -1z"/>
<path d="M6450 4270 c-12 -8 -9 -10 13 -10 15 0 27 5 27 10 0 13 -20 13 -40 0z"/>
<path d="M7100 4241 c0 -12 29 -35 36 -28 11 10 -5 37 -21 37 -8 0 -15 -4 -15
-9z"/>
<path d="M6166 4163 c-38 -26 -64 -49 -58 -51 6 -2 37 16 69 39 32 24 60 45
62 46 2 2 2 5 -1 8 -2 3 -35 -16 -72 -42z"/>
<path d="M6523 4193 c-18 -7 -16 -23 2 -23 8 0 15 7 15 15 0 8 -1 15 -2 14 -2
0 -9 -3 -15 -6z"/>
<path d="M6404 4179 c-10 -17 13 -36 27 -22 12 12 4 33 -11 33 -5 0 -12 -5
-16 -11z"/>
<path d="M7030 4140 c0 -5 7 -10 16 -10 8 0 12 5 9 10 -3 6 -10 10 -16 10 -5
0 -9 -4 -9 -10z"/>
<path d="M6741 4124 c0 -11 3 -14 6 -6 3 7 2 16 -1 19 -3 4 -6 -2 -5 -13z"/>
<path d="M7130 4120 c0 -5 5 -10 10 -10 6 0 10 5 10 10 0 6 -4 10 -10 10 -5 0
-10 -4 -10 -10z"/>
<path d="M7171 4114 c0 -11 3 -14 6 -6 3 7 2 16 -1 19 -3 4 -6 -2 -5 -13z"/>
<path d="M7220 4119 c0 -5 5 -7 10 -4 6 3 10 8 10 11 0 2 -4 4 -10 4 -5 0 -10
-5 -10 -11z"/>
<path d="M6291 4097 c-6 -8 -8 -17 -5 -20 9 -8 44 11 44 23 0 15 -26 12 -39
-3z"/>
<path d="M6440 4100 c0 -5 6 -10 14 -10 8 0 18 5 21 10 3 6 -3 10 -14 10 -12
0 -21 -4 -21 -10z"/>
<path d="M6966 4101 c-4 -7 -5 -15 -2 -18 9 -9 19 4 14 18 -4 11 -6 11 -12 0z"/>
<path d="M7266 4097 c3 -10 9 -15 12 -12 3 3 0 11 -7 18 -10 9 -11 8 -5 -6z"/>
<path d="M6599 4057 c5 -5 19 -7 32 -5 20 3 19 5 -9 9 -20 3 -29 2 -23 -4z"/>
<path d="M7020 4049 c0 -5 5 -7 10 -4 6 3 10 8 10 11 0 2 -4 4 -10 4 -5 0 -10
-5 -10 -11z"/>
<path d="M6750 4041 c0 -6 9 -9 20 -8 11 1 20 5 20 9 0 4 -9 8 -20 8 -11 0
-20 -4 -20 -9z"/>
<path d="M6620 4030 c0 -5 7 -7 15 -4 8 4 15 8 15 10 0 2 -7 4 -15 4 -8 0 -15
-4 -15 -10z"/>
<path d="M7072 4031 c4 -13 18 -16 19 -4 0 4 -5 9 -11 12 -7 2 -11 -2 -8 -8z"/>
<path d="M4653 4014 c-7 -18 12 -111 27 -134 9 -13 11 -13 20 0 22 32 22 60 0
105 -23 47 -37 56 -47 29z"/>
<path d="M6340 4020 c0 -5 6 -10 14 -10 8 0 18 5 21 10 3 6 -3 10 -14 10 -12
0 -21 -4 -21 -10z"/>
<path d="M6439 4014 c-11 -14 -10 -15 11 -12 13 1 25 9 28 16 5 17 -23 15 -39
-4z"/>
<path d="M6207 4013 c-12 -11 -8 -23 7 -23 7 0 19 7 26 15 10 12 9 15 -7 15
-11 0 -23 -3 -26 -7z"/>
<path d="M6694 4009 c-8 -14 11 -33 25 -25 6 4 11 11 11 16 0 13 -29 20 -36 9z"/>
<path d="M7115 4010 c-3 -5 1 -10 10 -10 9 0 13 5 10 10 -3 6 -8 10 -10 10 -2
0 -7 -4 -10 -10z"/>
<path d="M7235 4011 c-3 -5 -1 -12 5 -16 5 -3 10 1 10 9 0 18 -6 21 -15 7z"/>
<path d="M5990 3975 c0 -8 4 -15 9 -15 5 0 16 -3 25 -6 26 -10 18 12 -9 24
-21 10 -25 9 -25 -3z"/>
<path d="M6106 3969 c-15 -9 -16 -13 -5 -20 19 -12 32 -11 24 1 -3 6 1 10 9
10 9 0 16 5 16 10 0 13 -20 12 -44 -1z"/>
<path d="M6757 3974 c-8 -8 1 -24 14 -24 5 0 9 7 9 15 0 15 -12 20 -23 9z"/>
<path d="M6550 3948 c0 -4 9 -8 20 -8 11 0 20 4 20 8 0 4 -9 8 -20 8 -11 0
-20 -4 -20 -8z"/>
<path d="M6296 3934 c-4 -11 -1 -14 11 -12 9 2 18 9 21 16 6 18 -25 15 -32 -4z"/>
<path d="M7172 3930 c0 -14 2 -19 5 -12 2 6 2 18 0 25 -3 6 -5 1 -5 -13z"/>
<path d="M7205 3940 c-3 -5 -1 -10 4 -10 6 0 11 5 11 10 0 6 -2 10 -4 10 -3 0
-8 -4 -11 -10z"/>
<path d="M7315 3940 c-3 -5 -1 -10 4 -10 6 0 11 5 11 10 0 6 -2 10 -4 10 -3 0
-8 -4 -11 -10z"/>
<path d="M5940 3915 c0 -8 5 -15 10 -15 6 0 10 7 10 15 0 8 -4 15 -10 15 -5 0
-10 -7 -10 -15z"/>
<path d="M6465 3920 c-3 -5 1 -10 9 -10 9 0 16 5 16 10 0 6 -4 10 -9 10 -6 0
-13 -4 -16 -10z"/>
<path d="M7050 3920 c0 -5 5 -10 10 -10 6 0 10 5 10 10 0 6 -4 10 -10 10 -5 0
-10 -4 -10 -10z"/>
<path d="M7145 3920 c-3 -5 -1 -10 4 -10 6 0 11 5 11 10 0 6 -2 10 -4 10 -3 0
-8 -4 -11 -10z"/>
<path d="M6170 3903 c1 -17 29 -45 39 -38 16 9 13 25 -5 25 -8 0 -12 5 -9 10
3 6 -1 10 -9 10 -9 0 -16 -3 -16 -7z"/>
<path d="M6647 3903 c-8 -13 27 -33 42 -24 9 6 8 11 -4 21 -12 10 -15 10 -15
-1 0 -12 -2 -12 -9 0 -5 7 -11 9 -14 4z"/>
<path d="M6025 3889 c-10 -15 1 -23 20 -15 9 3 13 10 10 16 -8 13 -22 13 -30
-1z"/>
<path d="M6980 3886 c0 -18 35 -22 45 -6 3 6 2 10 -4 10 -5 0 -16 3 -25 6 -11
4 -16 1 -16 -10z"/>
<path d="M6370 3878 c0 -4 7 -8 15 -8 8 0 15 4 15 8 0 5 -7 9 -15 9 -8 0 -15
-4 -15 -9z"/>
<path d="M7285 3870 c-3 -5 1 -10 9 -10 9 0 16 5 16 10 0 6 -4 10 -9 10 -6 0
-13 -4 -16 -10z"/>
<path d="M6100 3861 c0 -6 5 -13 10 -16 6 -3 10 1 10 9 0 9 -4 16 -10 16 -5 0
-10 -4 -10 -9z"/>
<path d="M6264 3859 c-10 -17 13 -36 27 -22 12 12 4 33 -11 33 -5 0 -12 -5
-16 -11z"/>
<path d="M4630 3820 c0 -54 27 -121 40 -100 15 24 12 58 -10 100 -11 22 -23
40 -25 40 -3 0 -5 -18 -5 -40z"/>
<path d="M6475 3840 c-8 -13 3 -30 18 -29 9 0 9 2 0 6 -7 2 -13 9 -13 15 0 6
7 7 16 4 8 -3 12 -2 9 4 -8 13 -22 13 -30 0z"/>
<path d="M7085 3840 c-3 -5 -1 -10 4 -10 6 0 11 5 11 10 0 6 -2 10 -4 10 -3 0
-8 -4 -11 -10z"/>
<path d="M7153 3831 c-1 -14 3 -18 13 -14 16 6 14 25 -2 30 -5 2 -10 -6 -11
-16z"/>
<path d="M7210 3839 c0 -5 5 -7 10 -4 6 3 10 8 10 11 0 2 -4 4 -10 4 -5 0 -10
-5 -10 -11z"/>
<path d="M7275 3840 c4 -6 11 -8 16 -5 14 9 11 15 -7 15 -8 0 -12 -5 -9 -10z"/>
<path d="M5960 3824 c0 -8 5 -12 10 -9 6 3 10 10 10 16 0 5 -4 9 -10 9 -5 0
-10 -7 -10 -16z"/>
<path d="M6923 3815 c0 -15 5 -25 14 -25 11 0 11 4 2 23 -16 31 -16 31 -16 2z"/>
<path d="M5931 3814 c0 -11 3 -14 6 -6 3 7 2 16 -1 19 -3 4 -6 -2 -5 -13z"/>
<path d="M6635 3821 c-3 -5 2 -11 10 -15 8 -3 17 -1 20 3 3 5 -2 11 -10 15 -8
3 -17 1 -20 -3z"/>
<path d="M7037 3813 c-12 -12 -7 -22 8 -17 8 4 15 10 15 15 0 11 -14 12 -23 2z"/>
<path d="M7090 3805 c0 -8 4 -15 8 -15 5 0 9 7 9 15 0 8 -4 15 -9 15 -4 0 -8
-7 -8 -15z"/>
<path d="M7214 3807 c-3 -9 -12 -13 -20 -10 -10 4 -14 -2 -13 -18 1 -16 3 -19
6 -7 2 9 10 15 17 12 13 -5 31 24 21 34 -2 3 -7 -2 -11 -11z"/>
<path d="M5852 3798 c-16 -16 -15 -29 2 -22 16 6 30 34 18 34 -5 0 -13 -5 -20
-12z"/>
<path d="M6030 3791 c0 -12 6 -21 16 -21 9 0 14 7 12 17 -5 25 -28 28 -28 4z"/>
<path d="M6755 3800 c3 -5 8 -10 11 -10 2 0 4 5 4 10 0 6 -5 10 -11 10 -5 0
-7 -4 -4 -10z"/>
<path d="M7329 3808 c-11 -39 -4 -50 26 -37 17 8 16 9 -5 5 -22 -5 -23 -4 -8
8 10 7 15 16 11 19 -6 7 -22 10 -24 5z"/>
<path d="M6572 3770 c0 -14 2 -19 5 -12 2 6 2 18 0 25 -3 6 -5 1 -5 -13z"/>
<path d="M7155 3780 c-3 -5 -1 -10 4 -10 6 0 11 5 11 10 0 6 -2 10 -4 10 -3 0
-8 -4 -11 -10z"/>
<path d="M6210 3760 c0 -11 5 -20 10 -20 6 0 10 9 10 20 0 11 -4 20 -10 20 -5
0 -10 -9 -10 -20z"/>
<path d="M6270 3771 c0 -5 5 -13 10 -16 6 -3 10 -2 10 4 0 5 -4 13 -10 16 -5
3 -10 2 -10 -4z"/>
<path d="M6340 3765 c0 -10 7 -15 18 -13 21 4 19 22 -2 26 -10 2 -16 -3 -16
-13z"/>
<path d="M6545 3770 c-3 -5 -1 -10 4 -10 6 0 11 5 11 10 0 6 -2 10 -4 10 -3 0
-8 -4 -11 -10z"/>
<path d="M6615 3770 c3 -5 8 -10 11 -10 2 0 4 5 4 10 0 6 -5 10 -11 10 -5 0
-7 -4 -4 -10z"/>
<path d="M6131 3763 c-1 -7 -6 -12 -12 -10 -6 1 -14 -4 -16 -10 -5 -15 6 -17
26 -4 7 5 11 15 8 22 -4 10 -6 10 -6 2z"/>
<path d="M6420 3755 c-8 -9 -4 -11 15 -7 14 2 25 8 25 11 0 12 -29 9 -40 -4z"/>
<path d="M7225 3740 c-7 -12 2 -30 16 -30 5 0 9 9 9 20 0 21 -15 27 -25 10z"/>
<path d="M5900 3724 c0 -8 -4 -12 -10 -9 -5 3 -10 -1 -10 -9 0 -10 6 -13 15
-10 13 6 22 44 10 44 -3 0 -5 -7 -5 -16z"/>
<path d="M5976 3730 c-15 -5 -16 -9 -7 -14 7 -5 18 -3 24 3 14 14 6 20 -17 11z"/>
<path d="M6505 3720 c-3 -5 0 -10 7 -10 10 0 10 -2 -1 -9 -8 -5 -9 -11 -3 -15
5 -3 15 0 21 8 8 10 8 16 -3 25 -10 8 -16 9 -21 1z"/>
<path d="M6705 3720 c-3 -5 -1 -10 4 -10 6 0 11 5 11 10 0 6 -2 10 -4 10 -3 0
-8 -4 -11 -10z"/>
<path d="M6985 3720 c3 -5 8 -10 11 -10 2 0 4 5 4 10 0 6 -5 10 -11 10 -5 0
-7 -4 -4 -10z"/>
<path d="M7010 3720 c0 -5 5 -10 10 -10 6 0 10 5 10 10 0 6 -4 10 -10 10 -5 0
-10 -4 -10 -10z"/>
<path d="M7121 3694 c0 -11 3 -14 6 -6 3 7 2 16 -1 19 -3 4 -6 -2 -5 -13z"/>
<path d="M7166 3701 c-4 -5 -2 -12 3 -15 5 -4 12 -2 15 3 4 5 2 12 -3 15 -5 4
-12 2 -15 -3z"/>
<path d="M6100 3691 c0 -11 26 -22 34 -14 3 3 3 10 0 14 -7 12 -34 11 -34 0z"/>
<path d="M6305 3691 c-6 -11 13 -26 22 -17 4 3 1 6 -6 6 -7 0 -9 5 -6 10 3 6
4 10 1 10 -3 0 -7 -4 -11 -9z"/>
<path d="M6580 3686 c0 -9 5 -16 10 -16 6 0 10 4 10 9 0 6 -4 13 -10 16 -5 3
-10 -1 -10 -9z"/>
<path d="M6376 3681 c-4 -7 -5 -15 -2 -18 9 -9 19 4 14 18 -4 11 -6 11 -12 0z"/>
<path d="M6228 3662 c7 -5 10 -16 7 -24 -5 -14 21 -35 31 -25 9 8 -22 57 -36
57 -12 0 -12 -2 -2 -8z"/>
<path d="M6416 3655 c4 -8 8 -15 10 -15 2 0 4 7 4 15 0 8 -4 15 -10 15 -5 0
-7 -7 -4 -15z"/>
<path d="M7221 3654 c0 -11 3 -14 6 -6 3 7 2 16 -1 19 -3 4 -6 -2 -5 -13z"/>
<path d="M6022 3649 c2 -7 10 -15 17 -17 8 -3 12 1 9 9 -2 7 -10 15 -17 17 -8
3 -12 -1 -9 -9z"/>
<path d="M5965 3639 c-4 -6 -5 -13 -2 -16 7 -7 27 6 27 18 0 12 -17 12 -25 -2z"/>
<path d="M6190 3640 c0 -5 5 -10 10 -10 6 0 10 5 10 10 0 6 -4 10 -10 10 -5 0
-10 -4 -10 -10z"/>
<path d="M6383 3643 c-17 -6 -17 -20 0 -26 8 -3 13 3 13 14 0 11 0 19 -1 18 0
0 -6 -3 -12 -6z"/>
<path d="M6984 3638 c-5 -7 0 -9 14 -6 12 3 23 1 25 -6 2 -6 8 -8 12 -4 11 11
-4 28 -25 28 -10 0 -22 -5 -26 -12z"/>
<path d="M6417 3623 c-12 -12 -7 -22 8 -17 8 4 15 10 15 15 0 11 -14 12 -23 2z"/>
<path d="M6516 3621 c-4 -7 -5 -15 -2 -18 9 -9 19 4 14 18 -4 11 -6 11 -12 0z"/>
<path d="M5875 3610 c-3 -5 3 -10 15 -10 12 0 18 5 15 10 -3 6 -10 10 -15 10
-5 0 -12 -4 -15 -10z"/>
<path d="M6110 3595 c0 -8 5 -15 10 -15 6 0 10 4 10 10 0 5 7 6 17 3 11 -4 14
-3 9 5 -10 17 -46 15 -46 -3z"/>
<path d="M7170 3605 c0 -5 5 -17 10 -25 5 -8 10 -10 10 -5 0 6 -5 17 -10 25
-5 8 -10 11 -10 5z"/>
<path d="M5976 3593 c-12 -12 -6 -33 9 -33 8 0 15 6 15 14 0 17 -14 28 -24 19z"/>
<path d="M6310 3580 c0 -5 4 -10 9 -10 6 0 13 5 16 10 3 6 -1 10 -9 10 -9 0
-16 -4 -16 -10z"/>
<path d="M6576 3582 c-2 -4 -1 -14 5 -22 7 -12 9 -10 9 8 0 23 -5 28 -14 14z"/>
<path d="M7106 3575 c4 -8 8 -15 10 -15 2 0 4 7 4 15 0 8 -4 15 -10 15 -5 0
-7 -7 -4 -15z"/>
<path d="M5915 3560 c3 -5 8 -10 11 -10 2 0 4 5 4 10 0 6 -5 10 -11 10 -5 0
-7 -4 -4 -10z"/>
<path d="M6126 3555 c4 -8 14 -15 23 -14 10 0 11 2 3 6 -6 2 -10 9 -6 14 3 5
-2 9 -10 9 -10 0 -13 -6 -10 -15z"/>
<path d="M6200 3563 c0 -5 5 -15 10 -23 8 -12 10 -11 10 8 0 12 -4 22 -10 22
-5 0 -10 -3 -10 -7z"/>
<path d="M6247 3554 c-14 -14 -6 -24 19 -24 16 0 24 5 22 13 -5 14 -31 21 -41
11z"/>
<path d="M6325 3550 c-4 -7 -3 -16 3 -22 14 -14 45 -2 40 15 -6 16 -34 21 -43
7z"/>
<path d="M6519 3548 c-6 -12 -4 -48 2 -48 5 0 9 11 9 25 0 21 -6 33 -11 23z"/>
<path d="M6020 3530 c0 -5 7 -10 16 -10 8 0 12 5 9 10 -3 6 -10 10 -16 10 -5
0 -9 -4 -9 -10z"/>
<path d="M6450 3525 c0 -8 4 -15 10 -15 5 0 7 7 4 15 -4 8 -8 15 -10 15 -2 0
-4 -7 -4 -15z"/>
<path d="M6415 3520 c-3 -5 -1 -10 4 -10 6 0 11 5 11 10 0 6 -2 10 -4 10 -3 0
-8 -4 -11 -10z"/>
<path d="M5965 3510 c3 -5 13 -10 21 -10 8 0 12 5 9 10 -3 6 -13 10 -21 10 -8
0 -12 -4 -9 -10z"/>
<path d="M6335 3500 c-7 -12 12 -40 26 -40 5 0 9 5 9 10 0 6 -3 9 -7 9 -19 -3
-27 2 -14 10 8 5 9 11 3 15 -6 3 -14 2 -17 -4z"/>
<path d="M6038 3493 c7 -3 16 -2 19 1 4 3 -2 6 -13 5 -11 0 -14 -3 -6 -6z"/>
<path d="M6143 3483 c-7 -2 -13 -9 -13 -15 0 -12 41 -6 41 7 1 12 -11 15 -28
8z"/>
<path d="M6216 3478 c3 -4 15 -8 26 -8 12 0 18 3 14 7 -10 10 -46 11 -40 1z"/>
<path d="M6445 3479 c-11 -17 -2 -18 25 -4 24 14 24 14 3 15 -12 0 -25 -5 -28
-11z"/>
<path d="M6035 3460 c3 -5 13 -10 21 -10 8 0 14 5 14 10 0 6 -9 10 -21 10 -11
0 -17 -4 -14 -10z"/>
<path d="M6395 3460 c-19 -8 -19 -9 3 -9 12 -1 22 4 22 9 0 6 -1 10 -2 9 -2 0
-12 -4 -23 -9z"/>
<path d="M6114 3438 c-4 -5 1 -17 10 -26 15 -15 18 -15 26 -2 5 8 10 18 10 21
0 12 -40 17 -46 7z"/>
<path d="M4421 3296 c-10 -12 -4 -16 36 -21 26 -3 60 -9 76 -11 36 -7 35 11
-3 31 -37 19 -94 19 -109 1z"/>
<path d="M7456 3534 c-4 -9 -4 -19 -2 -21 8 -8 26 8 26 23 0 19 -16 18 -24 -2z"/>
</g>
</svg>
